<svg xmlns="http://www.w3.org/2000/svg" width="66.8" height="86.801">
  <g data-name="Layer 2">
    <g data-name="government">
      <g data-name="pillars">
        <rect x="7.2" y="48.401" width="3.2" height="25.6" rx=".068" ry=".068"/>
        <rect x="17.04" y="48.401" width="3.2" height="25.6" rx=".068" ry=".068"/>
        <rect x="26.88" y="48.401" width="3.2" height="25.6" rx=".068" ry=".068"/>
        <rect x="56.4" y="48.401" width="3.2" height="25.6" rx=".068" ry=".068"/>
        <rect x="46.56" y="48.401" width="3.2" height="25.6" rx=".068" ry=".068"/>
        <rect x="36.72" y="48.401" width="3.2" height="25.6" rx=".068" ry=".068"/>
      </g>
      <rect x="3.6" y="77.201" width="59.6" height="3.2" rx=".068" ry=".068" data-name="step"/>
      <rect y="83.601" width="66.8" height="3.2" rx=".068" ry=".068" data-name="base"/>
      <path data-name="pediment" d="M63.148 40.388l-29.731-7.583h-.034L3.651 40.388a.068.068 0 0 0-.051.066v4.679a.068.068 0 0 0 .068.068h59.464a.069.069 0 0 0 .068-.068v-4.679a.067.067 0 0 0-.052-.066zM33.2 42.8a3.2 3.2 0 1 1 3.2-3.2 3.2 3.2 0 0 1-3.2 3.2z"/>
      <path data-name="dome-flag" d="M34 14.036V8.4h3.932A.069.069 0 0 0 38 8.333v1.6a.069.069 0 0 0 .068.069h4.664a.068.068 0 0 0 .068-.069V3.669a.067.067 0 0 0-.068-.068h-4.664a.068.068 0 0 0-.068.068v-1.6A.068.068 0 0 0 37.932 2H34V.8a.8.8 0 1 0-1.6 0v13.239c-7.71.436-13.6 7.251-13.6 15.029v4.212l14.6-3.68 14.2 3.6v-4.8A14.392 14.392 0 0 0 34 14.036z"/>
    </g>
  </g>
</svg>
