
<svg xmlns="http://www.w3.org/2000/svg" width="628.648" height="68.985">
  <g data-name="industry-business-enterprise">
    <g data-name="wind-turbine">
      <path d="M615.042 23.375h1.348v45.61h3.991l-1.71-45.61h4.561v-4.561H616.2a2.088 2.088 0 0 0-2.09 2.086v1.54a.933.933 0 0 0 .932.935zM626.937 19.384c-.025 0-.049.007-.074.008L626.082 0h-1.14v42.474h1.14l.792-19.675c.022 0 .042.006.063.006a1.711 1.711 0 1 0 0-3.421z"/>
    </g>
    <path d="M610.858 39.423l-24.877 6.094a.481.481 0 0 1-.6-.467v-5.161a.48.48 0 0 0-.594-.466l-24.877 6.094a.481.481 0 0 1-.595-.467v-5.161a.48.48 0 0 0-.6-.466l-25.105 6.15a.479.479 0 0 0-.366.466v22.946h43.215V52.522h15.777v16.463h19.207v-29.1a.48.48 0 0 0-.585-.462zM540.8 65.555H536v-4.8h4.8zm0-8.232H536v-4.8h4.8zm8.231 8.232h-4.8v-4.8h4.8zm0-8.232h-4.8v-4.8h4.8zm8.231 8.232h-4.8v-4.8h4.8zm0-8.232h-4.8v-4.8h4.8zm7.546 8.232h-4.8v-4.8h4.8zm0-8.232h-4.8v-4.8h4.8zm8.231 8.232h-4.8v-4.8h4.8zm0-8.232h-4.8v-4.8h4.8zm27.438 8.232h-4.8v-4.8h4.8zm0-8.232h-4.8v-4.8h4.8zm8.232 8.232h-4.8v-4.8h4.8zm0-8.232h-4.8v-4.8h4.8z" data-name="building"/>
  </g>
</svg>
