<svg xmlns="http://www.w3.org/2000/svg" width="572.095" height="190.24" viewBox="0 0 572.095 190.24"><title>regional-community</title><g id="479a5a1f-e8a8-4c99-a726-ed7f0cb8c6e2" data-name="Layer 2"><g id="2bf07cb8-a57a-4b43-bc50-a65247c03a44" data-name="reform-partner"><g id="88b2c9e5-c4ce-4063-a096-6e89cd2448f6" data-name="base"><g id="c4a2dac6-2816-4e91-b316-296f087686dd" data-name="&lt;Rectangle&gt;"><rect width="74.515" height="3.2"/></g></g></g><g id="543f9d8a-f4ec-46ea-aa43-8c36030ecf4f" data-name="regional-community"><g id="0c245dbc-1a43-43b3-9f31-4e3d8571e486" data-name="buildings"><path id="a44e896f-7063-40eb-987a-ce82d0c45f9d" data-name="building-L" d="M448.98,160.64v29.6h12v-9.125h5.6v9.125h12v-29.6l-14.8-10Zm8.8,26.4h-5.6v-5.6h5.6Zm0-8.8h-5.6v-5.6h5.6Zm0-8.8h-5.6v-5.6h5.6Zm17.6,17.6h-5.6v-5.6h5.6Zm0-8.8h-5.6v-5.6h5.6Zm0-8.8h-5.6v-5.6h5.6Z"/><path id="cef0b025-2ec5-4bc6-99ce-dfec0dbe2233" data-name="building-M-2" d="M477.98,169.64v20.6h12v-9.125h5.6v9.125h4v-20.6l-10.8-10Zm8.8,17.4h-5.6v-5.6h5.6Zm0-8.8h-5.6v-5.6h5.6Z"/><path id="782e84cf-c445-420a-ac09-3d8951fd6e27" data-name="building-M-4" d="M557.295,156.64l-14.8,10v23.6h12v-9.125h5.6v9.125h12v-23.6Zm6,24.8h5.6v5.6h-5.6Zm0-8.8h5.6v5.6h-5.6Zm-17.6,8.8h5.6v5.6h-5.6Zm0-8.8h5.6v5.6h-5.6Z"/><path id="0b192415-25dd-4fa4-8974-b5dd23b932ba" data-name="building-S" d="M532.295,168.64l-10.8,10v11.6h4v-9.125h5.6v9.125h12v-11.6Zm2,12.8h5.6v5.6h-5.6Z"/></g><g id="6f835380-a702-4033-921e-6c69a46e64c8" data-name="tree"><circle cx="508.038" cy="165.615" r="2.5"/><circle cx="510.538" cy="170.115" r="6"/><circle cx="512.038" cy="172.615" r="3.5"/><circle cx="509.538" cy="163.115" r="2"/><circle cx="515.038" cy="172.615" r="4.5"/><circle cx="505.038" cy="172.615" r="3.5"/><circle cx="517.538" cy="170.115" r="3"/><circle cx="510.538" cy="174.115" r="5"/><circle cx="506.038" cy="177.615" r="5.5"/><circle cx="514.538" cy="176.115" r="6"/><rect x="508.538" y="175.115" width="4" height="15"/></g></g></g></svg>